{"title":"Amazing Medical Stories - The Man Whose Skin Melted","uid":15897872,"size":397270023,"categoryP":"video","categoryS":"tv_shows","magnet":"?xt=urn:btih:ac3359e97b9f70525816202365b9c1085b79aa1a&amp;dn=Amazing+Medical+Stories+-+The+Man+Whose+Skin+Melted&amp;tr=udp%3A%2F%2Ftracker.leechers-paradise.org%3A6969&amp;tr=udp%3A%2F%2Fzer0day.ch%3A1337&amp;tr=udp%3A%2F%2Fopen.demonii.com%3A1337&amp;tr=udp%3A%2F%2Ftracker.coppersurfer.tk%3A6969&amp;tr=udp%3A%2F%2Fexodus.desync.com%3A6969","seeders":7,"leechers":1,"uploader":"Bullrout","files":1,"time":1474977996,"description":"Amazing Medical Stories - The Man Whose Skin Melted\r\n\r\nAlex Lewis had it all, good looks, a wonderful wife and a beautiful son...but when he contracted 'Toxic Shock Syndrome' his entire world fell apart. His face literally melted away. Unable to care for himself and barely recognisable to his family.\r\n\r\nComplete name : Amazing Medical Stories - The Man Whose Skin Melted.mp4\r\nFormat : MPEG-4\r\nFormat profile : Base Media / Version 2\r\nCodec ID : mp42 (mp42/isom/avc1)\r\nFile size : 379 MiB\r\nDuration : 48 min 8 s\r\nOverall bit rate mode : Variable\r\nOverall bit rate : 1 100 kb/s\r\n\r\nVideo\r\nID : 2\r\nFormat : AVC\r\nFormat/Info : Advanced Video Codec\r\nFormat profile :   \r\nFormat settings, CABAC : Yes\r\nFormat settings, ReFrames : 3 frames\r\nCodec ID : avc1\r\nCodec ID/Info : Advanced Video Coding\r\nDuration : 48 min 8 s\r\nBit rate mode : Variable\r\nBit rate : 969 kb/s\r\nMaximum bit rate : 1 000 kb/s\r\nWidth : 720 pixels\r\nHeight : 404 pixels\r\nDisplay aspect ratio : 16:9\r\nOriginal display aspect ratio : 16:9\r\nFrame rate mode : Constant\r\nFrame rate : 25.000 FPS\r\nStandard : PAL\r\nColor space : YUV\r\nChroma subsampling : 4:2:0\r\nBit depth : 8 bits\r\nScan type : Progressive\r\nBits/(Pixel*Frame) : 0.133\r\nStream size : 334 MiB (88%)\r\nWriting library : x264 core 112\r\nColor range : Limited\r\nColor primaries : BT.601 PAL\r\nTransfer characteristics : BT.470 System B, BT.470 System G\r\nMatrix coefficients : BT.601\r\n\r\nAudio\r\nID : 1\r\nFormat : AAC\r\nFormat/Info : Advanced Audio Codec\r\nFormat profile : LC\r\nCodec ID : 40\r\nDuration : 48 min 8 s\r\nBit rate mode : Variable\r\nBit rate : 128 kb/s\r\nMaximum bit rate : 576 kb/s\r\nChannel(s) : 2 channels\r\nChannel positions : Front: L R\r\nSampling rate : 48.0 kHz\r\nFrame rate : 46.875 FPS (1024 spf)\r\nCompression mode : Lossy\r\nStream size : 44.1 MiB (12%)","torrent":{"xt":"urn:btih:ac3359e97b9f70525816202365b9c1085b79aa1a","amp;dn":"Amazing+Medical+Stories+-+The+Man+Whose+Skin+Melted","amp;tr":["udp%3A%2F%2Ftracker.leechers-paradise.org%3A6969","udp%3A%2F%2Fzer0day.ch%3A1337","udp%3A%2F%2Fopen.demonii.com%3A1337","udp%3A%2F%2Ftracker.coppersurfer.tk%3A6969","udp%3A%2F%2Fexodus.desync.com%3A6969"],"infoHash":"ac3359e97b9f70525816202365b9c1085b79aa1a","infoHashBuffer":{"type":"Buffer","data":[172,51,89,233,123,159,112,82,88,22,32,35,101,185,193,8,91,121,170,26]},"announce":[],"urlList":[]}}